<svg xmlns="http://www.w3.org/2000/svg" width="1700" height="900" viewBox="0 0 1700 900">
<rect width="100%" height="100%" fill="#faf7f2"/>
<text x="850.0" y="36" text-anchor="middle" font-family="Helvetica, Arial, sans-serif" font-size="24" fill="#222222">ifxdev/pharos adapter throughput</text>
<text x="850.0" y="64" text-anchor="middle" font-family="Helvetica, Arial, sans-serif" font-size="14" fill="#222222">run_id=./src/use_cases/pharos/pharos.yaml | checkpoint updated=2026-05-12T16:04:44.181923 | completed=51 | running=0 | failed=0</text>
<text x="480.0" y="90" text-anchor="middle" font-family="Helvetica, Arial, sans-serif" font-size="18" fill="#222222">Completed adapters: records vs elapsed time</text>
<text x="1280.0" y="90" text-anchor="middle" font-family="Helvetica, Arial, sans-serif" font-size="18" fill="#222222">Throughput by completed adapter</text>
<line x1="300.9" y1="110" x2="300.9" y2="810" stroke="#d8d2c8" stroke-width="1"/>
<text x="300.9" y="832" text-anchor="middle" font-family="Helvetica, Arial, sans-serif" font-size="12" fill="#222222">10,000</text>
<line x1="530.2" y1="110" x2="530.2" y2="810" stroke="#d8d2c8" stroke-width="1"/>
<text x="530.2" y="832" text-anchor="middle" font-family="Helvetica, Arial, sans-serif" font-size="12" fill="#222222">100,000</text>
<line x1="759.5" y1="110" x2="759.5" y2="810" stroke="#d8d2c8" stroke-width="1"/>
<text x="759.5" y="832" text-anchor="middle" font-family="Helvetica, Arial, sans-serif" font-size="12" fill="#222222">1,000,000</text>
<line x1="70" y1="594.5" x2="890" y2="594.5" stroke="#d8d2c8" stroke-width="1"/>
<text x="60" y="598.5" text-anchor="end" font-family="Helvetica, Arial, sans-serif" font-size="12" fill="#222222">0.1</text>
<line x1="70" y1="456.2" x2="890" y2="456.2" stroke="#d8d2c8" stroke-width="1"/>
<text x="60" y="460.2" text-anchor="end" font-family="Helvetica, Arial, sans-serif" font-size="12" fill="#222222">1</text>
<line x1="70" y1="317.9" x2="890" y2="317.9" stroke="#d8d2c8" stroke-width="1"/>
<text x="60" y="321.9" text-anchor="end" font-family="Helvetica, Arial, sans-serif" font-size="12" fill="#222222">10</text>
<line x1="70" y1="179.5" x2="890" y2="179.5" stroke="#d8d2c8" stroke-width="1"/>
<text x="60" y="183.5" text-anchor="end" font-family="Helvetica, Arial, sans-serif" font-size="12" fill="#222222">100</text>
<rect x="70" y="110" width="820" height="700" fill="none" stroke="#3a3733" stroke-width="1.5"/>
<text x="480.0" y="878" text-anchor="middle" font-family="Helvetica, Arial, sans-serif" font-size="14" fill="#222222">Records written (log scale)</text>
<text transform="translate(22 460.0) rotate(-90)" text-anchor="middle" font-family="Helvetica, Arial, sans-serif" font-size="14" fill="#222222">Elapsed time in minutes (log scale)</text>
<polyline fill="none" stroke="#c0392b" stroke-width="2" points="70.0,716.6 76.9,711.2 83.8,705.9 90.7,700.6 97.6,695.3 104.5,690.0 111.3,684.7 118.2,679.4 125.1,674.1 132.0,668.8 138.9,663.4 145.8,658.1 152.7,652.8 159.6,647.5 166.5,642.2 173.4,636.9 180.3,631.6 187.1,626.3 194.0,620.9 200.9,615.6 207.8,610.3 214.7,605.0 221.6,599.7 228.5,594.4 235.4,589.1 242.3,583.8 249.2,578.5 256.1,573.1 262.9,567.8 269.8,562.5 276.7,557.2 283.6,551.9 290.5,546.6 297.4,541.3 304.3,536.0 311.2,530.7 318.1,525.3 325.0,520.0 331.8,514.7 338.7,509.4 345.6,504.1 352.5,498.8 359.4,493.5 366.3,488.2 373.2,482.9 380.1,477.5 387.0,472.2 393.9,466.9 400.8,461.6 407.6,456.3 414.5,451.0 421.4,445.7 428.3,440.4 435.2,435.0 442.1,429.7 449.0,424.4 455.9,419.1 462.8,413.8 469.7,408.5 476.6,403.2 483.4,397.9 490.3,392.6 497.2,387.2 504.1,381.9 511.0,376.6 517.9,371.3 524.8,366.0 531.7,360.7 538.6,355.4 545.5,350.1 552.4,344.8 559.2,339.4 566.1,334.1 573.0,328.8 579.9,323.5 586.8,318.2 593.7,312.9 600.6,307.6 607.5,302.3 614.4,297.0 621.3,291.6 628.2,286.3 635.0,281.0 641.9,275.7 648.8,270.4 655.7,265.1 662.6,259.8 669.5,254.5 676.4,249.1 683.3,243.8 690.2,238.5 697.1,233.2 703.9,227.9 710.8,222.6 717.7,217.3 724.6,212.0 731.5,206.7 738.4,201.3 745.3,196.0 752.2,190.7 759.1,185.4 766.0,180.1 772.9,174.8 779.7,169.5 786.6,164.2 793.5,158.9 800.4,153.5 807.3,148.2 814.2,142.9 821.1,137.6 828.0,132.3 834.9,127.0 841.8,121.7 848.7,116.4 855.5,111.1 862.4,105.7 869.3,100.4 876.2,95.1 883.1,89.8 890.0,84.5"/>
<text x="86" y="132" font-family="Helvetica, Arial, sans-serif" font-size="12" fill="#c0392b">trend line</text>
<circle cx="422.8" cy="502.1" r="6" fill="#3f3275" stroke="#3a3733" stroke-width="1.2"/>
<circle cx="527.7" cy="526.2" r="6" fill="#46b373" stroke="#b22222" stroke-width="1.2"/>
<text x="535.7" y="518.2" font-family="Helvetica, Arial, sans-serif" font-size="11" fill="#222222">GOTerm</text>
<circle cx="372.7" cy="442.7" r="6" fill="#430c5b" stroke="#3a3733" stroke-width="1.2"/>
<circle cx="757.8" cy="218.6" r="6" fill="#430d5c" stroke="#3a3733" stroke-width="1.2"/>
<circle cx="339.4" cy="635.7" r="6" fill="#3ca97a" stroke="#3a3733" stroke-width="1.2"/>
<circle cx="484.0" cy="500.8" r="6" fill="#38588b" stroke="#3a3733" stroke-width="1.2"/>
<circle cx="514.8" cy="347.8" r="6" fill="#430a5a" stroke="#3a3733" stroke-width="1.2"/>
<circle cx="622.7" cy="295.3" r="6" fill="#430c5c" stroke="#3a3733" stroke-width="1.2"/>
<circle cx="785.7" cy="145.0" r="6" fill="#430657" stroke="#3a3733" stroke-width="1.2"/>
<circle cx="433.1" cy="354.6" r="6" fill="#440557" stroke="#b22222" stroke-width="1.2"/>
<text x="441.1" y="346.6" font-family="Helvetica, Arial, sans-serif" font-size="11" fill="#222222">BioPlexPPI</text>
<circle cx="381.9" cy="387.8" r="6" fill="#440557" stroke="#b22222" stroke-width="1.2"/>
<text x="389.9" y="379.8" font-family="Helvetica, Arial, sans-serif" font-size="11" fill="#222222">ReactomePPI</text>
<circle cx="789.8" cy="133.0" r="6" fill="#440557" stroke="#3a3733" stroke-width="1.2"/>
<circle cx="730.5" cy="199.8" r="6" fill="#430859" stroke="#3a3733" stroke-width="1.2"/>
<circle cx="692.4" cy="222.2" r="6" fill="#430858" stroke="#3a3733" stroke-width="1.2"/>
<circle cx="738.3" cy="196.0" r="6" fill="#430859" stroke="#3a3733" stroke-width="1.2"/>
<circle cx="305.4" cy="586.2" r="6" fill="#3d3e7e" stroke="#3a3733" stroke-width="1.2"/>
<circle cx="317.5" cy="468.5" r="6" fill="#430a5a" stroke="#3a3733" stroke-width="1.2"/>
<circle cx="750.5" cy="337.1" r="6" fill="#3a558b" stroke="#b22222" stroke-width="1.2"/>
<text x="758.5" y="329.1" font-family="Helvetica, Arial, sans-serif" font-size="11" fill="#222222">DrugNode</text>
<circle cx="792.9" cy="177.4" r="6" fill="#430a5a" stroke="#3a3733" stroke-width="1.2"/>
<circle cx="231.8" cy="597.5" r="6" fill="#40246c" stroke="#3a3733" stroke-width="1.2"/>
<circle cx="353.5" cy="423.0" r="6" fill="#430758" stroke="#3a3733" stroke-width="1.2"/>
<circle cx="448.3" cy="387.7" r="6" fill="#430a5a" stroke="#3a3733" stroke-width="1.2"/>
<circle cx="348.4" cy="433.3" r="6" fill="#430859" stroke="#3a3733" stroke-width="1.2"/>
<circle cx="397.0" cy="283.7" r="6" fill="#440254" stroke="#b22222" stroke-width="1.2"/>
<text x="405.0" y="275.7" font-family="Helvetica, Arial, sans-serif" font-size="11" fill="#222222">TINX</text>
<circle cx="890.0" cy="110.0" r="6" fill="#430859" stroke="#3a3733" stroke-width="1.2"/>
<circle cx="362.2" cy="431.4" r="6" fill="#430959" stroke="#3a3733" stroke-width="1.2"/>
<circle cx="371.0" cy="439.7" r="6" fill="#430b5b" stroke="#3a3733" stroke-width="1.2"/>
<circle cx="736.9" cy="225.2" r="6" fill="#430c5c" stroke="#3a3733" stroke-width="1.2"/>
<circle cx="744.7" cy="217.0" r="6" fill="#430b5b" stroke="#3a3733" stroke-width="1.2"/>
<circle cx="398.5" cy="523.3" r="6" fill="#3e3879" stroke="#3a3733" stroke-width="1.2"/>
<circle cx="438.4" cy="474.2" r="6" fill="#40256c" stroke="#3a3733" stroke-width="1.2"/>
<circle cx="319.2" cy="565.4" r="6" fill="#3e3376" stroke="#3a3733" stroke-width="1.2"/>
<circle cx="353.3" cy="536.0" r="6" fill="#3f2c71" stroke="#3a3733" stroke-width="1.2"/>
<circle cx="454.6" cy="379.6" r="6" fill="#43095a" stroke="#3a3733" stroke-width="1.2"/>
<circle cx="333.0" cy="439.9" r="6" fill="#430859" stroke="#3a3733" stroke-width="1.2"/>
<circle cx="433.5" cy="389.8" r="6" fill="#430959" stroke="#3a3733" stroke-width="1.2"/>
<circle cx="734.2" cy="224.8" r="6" fill="#430c5b" stroke="#3a3733" stroke-width="1.2"/>
<circle cx="176.1" cy="764.0" r="6" fill="#fde725" stroke="#b22222" stroke-width="1.2"/>
<text x="184.1" y="756.0" font-family="Helvetica, Arial, sans-serif" font-size="11" fill="#222222">ReactomePathway</text>
<circle cx="177.1" cy="754.7" r="6" fill="#a7d746" stroke="#3a3733" stroke-width="1.2"/>
<circle cx="570.5" cy="327.4" r="6" fill="#430c5c" stroke="#3a3733" stroke-width="1.2"/>
<circle cx="70.0" cy="810.0" r="6" fill="#5cc764" stroke="#3a3733" stroke-width="1.2"/>
<circle cx="441.8" cy="384.2" r="6" fill="#430959" stroke="#3a3733" stroke-width="1.2"/>
<circle cx="163.2" cy="731.4" r="6" fill="#23938a" stroke="#3a3733" stroke-width="1.2"/>
<circle cx="450.0" cy="387.7" r="6" fill="#430a5a" stroke="#3a3733" stroke-width="1.2"/>
<circle cx="515.6" cy="398.8" r="6" fill="#421763" stroke="#3a3733" stroke-width="1.2"/>
<circle cx="358.2" cy="631.1" r="6" fill="#4dba6d" stroke="#b22222" stroke-width="1.2"/>
<text x="366.2" y="623.1" font-family="Helvetica, Arial, sans-serif" font-size="11" fill="#222222">DTOClass</text>
<circle cx="358.1" cy="640.3" r="6" fill="#79ce58" stroke="#b22222" stroke-width="1.2"/>
<text x="366.1" y="632.3" font-family="Helvetica, Arial, sans-serif" font-size="11" fill="#222222">DTOClassParentEdge</text>
<circle cx="360.8" cy="448.3" r="6" fill="#430b5b" stroke="#3a3733" stroke-width="1.2"/>
<circle cx="407.3" cy="255.6" r="6" fill="#440154" stroke="#b22222" stroke-width="1.2"/>
<text x="415.3" y="247.6" font-family="Helvetica, Arial, sans-serif" font-size="11" fill="#222222">SureChEMBLPatentFamily</text>
<circle cx="368.8" cy="342.5" r="6" fill="#440355" stroke="#b22222" stroke-width="1.2"/>
<text x="376.8" y="334.5" font-family="Helvetica, Arial, sans-serif" font-size="11" fill="#222222">NCBIPublication</text>
<circle cx="348.4" cy="258.9" r="6" fill="#440154" stroke="#b22222" stroke-width="1.2"/>
<text x="356.4" y="250.9" font-family="Helvetica, Arial, sans-serif" font-size="11" fill="#222222">JensenLabPublication</text>
<rect x="715" y="126" width="1.2" height="10" fill="#440154" stroke="none"/>
<rect x="716" y="126" width="1.2" height="10" fill="#440456" stroke="none"/>
<rect x="717" y="126" width="1.2" height="10" fill="#430858" stroke="none"/>
<rect x="718" y="126" width="1.2" height="10" fill="#430b5b" stroke="none"/>
<rect x="719" y="126" width="1.2" height="10" fill="#430e5d" stroke="none"/>
<rect x="720" y="126" width="1.2" height="10" fill="#42115f" stroke="none"/>
<rect x="721" y="126" width="1.2" height="10" fill="#421561" stroke="none"/>
<rect x="722" y="126" width="1.2" height="10" fill="#411864" stroke="none"/>
<rect x="723" y="126" width="1.2" height="10" fill="#411b66" stroke="none"/>
<rect x="724" y="126" width="1.2" height="10" fill="#411e68" stroke="none"/>
<rect x="725" y="126" width="1.2" height="10" fill="#40226a" stroke="none"/>
<rect x="726" y="126" width="1.2" height="10" fill="#40256c" stroke="none"/>
<rect x="727" y="126" width="1.2" height="10" fill="#40286f" stroke="none"/>
<rect x="728" y="126" width="1.2" height="10" fill="#3f2c71" stroke="none"/>
<rect x="729" y="126" width="1.2" height="10" fill="#3f2f73" stroke="none"/>
<rect x="730" y="126" width="1.2" height="10" fill="#3f3275" stroke="none"/>
<rect x="731" y="126" width="1.2" height="10" fill="#3e3578" stroke="none"/>
<rect x="732" y="126" width="1.2" height="10" fill="#3e397a" stroke="none"/>
<rect x="733" y="126" width="1.2" height="10" fill="#3d3c7c" stroke="none"/>
<rect x="734" y="126" width="1.2" height="10" fill="#3d3f7e" stroke="none"/>
<rect x="735" y="126" width="1.2" height="10" fill="#3d4280" stroke="none"/>
<rect x="736" y="126" width="1.2" height="10" fill="#3c4683" stroke="none"/>
<rect x="737" y="126" width="1.2" height="10" fill="#3c4985" stroke="none"/>
<rect x="738" y="126" width="1.2" height="10" fill="#3c4c87" stroke="none"/>
<rect x="739" y="126" width="1.2" height="10" fill="#3b5089" stroke="none"/>
<rect x="740" y="126" width="1.2" height="10" fill="#3b538b" stroke="none"/>
<rect x="741" y="126" width="1.2" height="10" fill="#3a558b" stroke="none"/>
<rect x="742" y="126" width="1.2" height="10" fill="#39588b" stroke="none"/>
<rect x="743" y="126" width="1.2" height="10" fill="#385a8b" stroke="none"/>
<rect x="744" y="126" width="1.2" height="10" fill="#375d8b" stroke="none"/>
<rect x="745" y="126" width="1.2" height="10" fill="#355f8b" stroke="none"/>
<rect x="746" y="126" width="1.2" height="10" fill="#34628b" stroke="none"/>
<rect x="747" y="126" width="1.2" height="10" fill="#33648b" stroke="none"/>
<rect x="748" y="126" width="1.2" height="10" fill="#32678b" stroke="none"/>
<rect x="749" y="126" width="1.2" height="10" fill="#316a8b" stroke="none"/>
<rect x="750" y="126" width="1.2" height="10" fill="#306c8b" stroke="none"/>
<rect x="751" y="126" width="1.2" height="10" fill="#2f6f8b" stroke="none"/>
<rect x="752" y="126" width="1.2" height="10" fill="#2e718b" stroke="none"/>
<rect x="753" y="126" width="1.2" height="10" fill="#2d748c" stroke="none"/>
<rect x="754" y="126" width="1.2" height="10" fill="#2c768c" stroke="none"/>
<rect x="755" y="126" width="1.2" height="10" fill="#2b798c" stroke="none"/>
<rect x="756" y="126" width="1.2" height="10" fill="#2a7b8c" stroke="none"/>
<rect x="757" y="126" width="1.2" height="10" fill="#297e8c" stroke="none"/>
<rect x="758" y="126" width="1.2" height="10" fill="#28808c" stroke="none"/>
<rect x="759" y="126" width="1.2" height="10" fill="#27838c" stroke="none"/>
<rect x="760" y="126" width="1.2" height="10" fill="#26868c" stroke="none"/>
<rect x="761" y="126" width="1.2" height="10" fill="#25888c" stroke="none"/>
<rect x="762" y="126" width="1.2" height="10" fill="#248b8c" stroke="none"/>
<rect x="763" y="126" width="1.2" height="10" fill="#238d8c" stroke="none"/>
<rect x="764" y="126" width="1.2" height="10" fill="#22908c" stroke="none"/>
<rect x="765" y="126" width="1.2" height="10" fill="#22928b" stroke="none"/>
<rect x="766" y="126" width="1.2" height="10" fill="#259489" stroke="none"/>
<rect x="767" y="126" width="1.2" height="10" fill="#279788" stroke="none"/>
<rect x="768" y="126" width="1.2" height="10" fill="#2a9986" stroke="none"/>
<rect x="769" y="126" width="1.2" height="10" fill="#2c9b84" stroke="none"/>
<rect x="770" y="126" width="1.2" height="10" fill="#2f9d83" stroke="none"/>
<rect x="771" y="126" width="1.2" height="10" fill="#31a081" stroke="none"/>
<rect x="772" y="126" width="1.2" height="10" fill="#33a27f" stroke="none"/>
<rect x="773" y="126" width="1.2" height="10" fill="#36a47e" stroke="none"/>
<rect x="774" y="126" width="1.2" height="10" fill="#38a67c" stroke="none"/>
<rect x="775" y="126" width="1.2" height="10" fill="#3ba97a" stroke="none"/>
<rect x="776" y="126" width="1.2" height="10" fill="#3dab78" stroke="none"/>
<rect x="777" y="126" width="1.2" height="10" fill="#40ad77" stroke="none"/>
<rect x="778" y="126" width="1.2" height="10" fill="#42b075" stroke="none"/>
<rect x="779" y="126" width="1.2" height="10" fill="#45b273" stroke="none"/>
<rect x="780" y="126" width="1.2" height="10" fill="#47b472" stroke="none"/>
<rect x="781" y="126" width="1.2" height="10" fill="#4ab670" stroke="none"/>
<rect x="782" y="126" width="1.2" height="10" fill="#4cb96e" stroke="none"/>
<rect x="783" y="126" width="1.2" height="10" fill="#4fbb6d" stroke="none"/>
<rect x="784" y="126" width="1.2" height="10" fill="#51bd6b" stroke="none"/>
<rect x="785" y="126" width="1.2" height="10" fill="#54bf69" stroke="none"/>
<rect x="786" y="126" width="1.2" height="10" fill="#56c268" stroke="none"/>
<rect x="787" y="126" width="1.2" height="10" fill="#58c466" stroke="none"/>
<rect x="788" y="126" width="1.2" height="10" fill="#5bc664" stroke="none"/>
<rect x="789" y="126" width="1.2" height="10" fill="#5dc862" stroke="none"/>
<rect x="790" y="126" width="1.2" height="10" fill="#63ca60" stroke="none"/>
<rect x="791" y="126" width="1.2" height="10" fill="#69cb5e" stroke="none"/>
<rect x="792" y="126" width="1.2" height="10" fill="#70cc5b" stroke="none"/>
<rect x="793" y="126" width="1.2" height="10" fill="#76ce59" stroke="none"/>
<rect x="794" y="126" width="1.2" height="10" fill="#7dcf56" stroke="none"/>
<rect x="795" y="126" width="1.2" height="10" fill="#83d054" stroke="none"/>
<rect x="796" y="126" width="1.2" height="10" fill="#89d151" stroke="none"/>
<rect x="797" y="126" width="1.2" height="10" fill="#90d24f" stroke="none"/>
<rect x="798" y="126" width="1.2" height="10" fill="#96d44c" stroke="none"/>
<rect x="799" y="126" width="1.2" height="10" fill="#9dd54a" stroke="none"/>
<rect x="800" y="126" width="1.2" height="10" fill="#a3d648" stroke="none"/>
<rect x="801" y="126" width="1.2" height="10" fill="#a9d745" stroke="none"/>
<rect x="802" y="126" width="1.2" height="10" fill="#b0d843" stroke="none"/>
<rect x="803" y="126" width="1.2" height="10" fill="#b6da40" stroke="none"/>
<rect x="804" y="126" width="1.2" height="10" fill="#bddb3e" stroke="none"/>
<rect x="805" y="126" width="1.2" height="10" fill="#c3dc3b" stroke="none"/>
<rect x="806" y="126" width="1.2" height="10" fill="#cadd39" stroke="none"/>
<rect x="807" y="126" width="1.2" height="10" fill="#d0df36" stroke="none"/>
<rect x="808" y="126" width="1.2" height="10" fill="#d6e034" stroke="none"/>
<rect x="809" y="126" width="1.2" height="10" fill="#dde131" stroke="none"/>
<rect x="810" y="126" width="1.2" height="10" fill="#e3e22f" stroke="none"/>
<rect x="811" y="126" width="1.2" height="10" fill="#eae32c" stroke="none"/>
<rect x="812" y="126" width="1.2" height="10" fill="#f0e52a" stroke="none"/>
<rect x="813" y="126" width="1.2" height="10" fill="#f7e627" stroke="none"/>
<rect x="814" y="126" width="1.2" height="10" fill="#fde725" stroke="none"/>
<text x="715" y="122" font-family="Helvetica, Arial, sans-serif" font-size="11" fill="#222222">slow</text>
<text x="815" y="122" font-family="Helvetica, Arial, sans-serif" font-size="11" fill="#222222">records/sec</text>
<text x="845" y="122" font-family="Helvetica, Arial, sans-serif" font-size="11" fill="#222222">fast</text>
<rect x="930" y="110" width="700" height="700" fill="none" stroke="#3a3733" stroke-width="1.5"/>
<line x1="1080.0" y1="110" x2="1080.0" y2="810" stroke="#d8d2c8" stroke-width="1"/>
<text x="1080.0" y="832" text-anchor="middle" font-family="Helvetica, Arial, sans-serif" font-size="12" fill="#222222">0</text>
<line x1="1081.6" y1="110" x2="1081.6" y2="810" stroke="#d8d2c8" stroke-width="1"/>
<text x="1081.6" y="832" text-anchor="middle" font-family="Helvetica, Arial, sans-serif" font-size="12" fill="#222222">25</text>
<line x1="1083.3" y1="110" x2="1083.3" y2="810" stroke="#d8d2c8" stroke-width="1"/>
<text x="1083.3" y="832" text-anchor="middle" font-family="Helvetica, Arial, sans-serif" font-size="12" fill="#222222">50</text>
<line x1="1086.5" y1="110" x2="1086.5" y2="810" stroke="#d8d2c8" stroke-width="1"/>
<text x="1086.5" y="832" text-anchor="middle" font-family="Helvetica, Arial, sans-serif" font-size="12" fill="#222222">100</text>
<line x1="1096.3" y1="110" x2="1096.3" y2="810" stroke="#d8d2c8" stroke-width="1"/>
<text x="1096.3" y="832" text-anchor="middle" font-family="Helvetica, Arial, sans-serif" font-size="12" fill="#222222">250</text>
<line x1="1112.5" y1="110" x2="1112.5" y2="810" stroke="#d8d2c8" stroke-width="1"/>
<text x="1112.5" y="832" text-anchor="middle" font-family="Helvetica, Arial, sans-serif" font-size="12" fill="#222222">500</text>
<line x1="1145.1" y1="110" x2="1145.1" y2="810" stroke="#d8d2c8" stroke-width="1"/>
<text x="1145.1" y="832" text-anchor="middle" font-family="Helvetica, Arial, sans-serif" font-size="12" fill="#222222">1,000</text>
<line x1="1210.2" y1="110" x2="1210.2" y2="810" stroke="#d8d2c8" stroke-width="1"/>
<text x="1210.2" y="832" text-anchor="middle" font-family="Helvetica, Arial, sans-serif" font-size="12" fill="#222222">2,000</text>
<line x1="1340.4" y1="110" x2="1340.4" y2="810" stroke="#d8d2c8" stroke-width="1"/>
<text x="1340.4" y="832" text-anchor="middle" font-family="Helvetica, Arial, sans-serif" font-size="12" fill="#222222">4,000</text>
<line x1="1418.5" y1="110" x2="1418.5" y2="810" stroke="#d8d2c8" stroke-width="1"/>
<text x="1418.5" y="832" text-anchor="middle" font-family="Helvetica, Arial, sans-serif" font-size="12" fill="#222222">5,200</text>
<text x="1280.0" y="878" text-anchor="middle" font-family="Helvetica, Arial, sans-serif" font-size="14" fill="#222222">Records per second</text>
<text x="1072" y="120.0" text-anchor="end" font-family="Helvetica, Arial, sans-serif" font-size="11" fill="#222222">JensenLabPublication</text>
<rect x="1080" y="114.0" width="1.0" height="8.0" fill="#b22222" opacity="0.88"/>
<text x="1086.7" y="120.0" font-family="Helvetica, Arial, sans-serif" font-size="11" fill="#222222">10.1</text>
<text x="1072" y="133.7" text-anchor="end" font-family="Helvetica, Arial, sans-serif" font-size="11" fill="#222222">SureChEMBLPatentFamily</text>
<rect x="1080" y="127.7" width="1.1" height="8.0" fill="#b22222" opacity="0.88"/>
<text x="1087.1" y="133.7" font-family="Helvetica, Arial, sans-serif" font-size="11" fill="#222222">17.2</text>
<text x="1072" y="147.5" text-anchor="end" font-family="Helvetica, Arial, sans-serif" font-size="11" fill="#222222">TINX</text>
<rect x="1080" y="141.5" width="1.6" height="8.0" fill="#b22222" opacity="0.88"/>
<text x="1087.6" y="147.5" font-family="Helvetica, Arial, sans-serif" font-size="11" fill="#222222">24.8</text>
<text x="1072" y="161.2" text-anchor="end" font-family="Helvetica, Arial, sans-serif" font-size="11" fill="#222222">NCBIPublication</text>
<rect x="1080" y="155.2" width="3.2" height="8.0" fill="#b22222" opacity="0.88"/>
<text x="1089.2" y="161.2" font-family="Helvetica, Arial, sans-serif" font-size="11" fill="#222222">49.6</text>
<text x="1072" y="174.9" text-anchor="end" font-family="Helvetica, Arial, sans-serif" font-size="11" fill="#222222">GTExExpression</text>
<rect x="1080" y="168.9" width="6.8" height="8.0" fill="#457b9d" opacity="0.88"/>
<text x="1092.8" y="174.9" font-family="Helvetica, Arial, sans-serif" font-size="11" fill="#222222">104.2</text>
<text x="1072" y="188.6" text-anchor="end" font-family="Helvetica, Arial, sans-serif" font-size="11" fill="#222222">BioPlexPPI</text>
<rect x="1080" y="182.6" width="7.5" height="8.0" fill="#b22222" opacity="0.88"/>
<text x="1093.5" y="188.6" font-family="Helvetica, Arial, sans-serif" font-size="11" fill="#222222">115.9</text>
<text x="1072" y="202.4" text-anchor="end" font-family="Helvetica, Arial, sans-serif" font-size="11" fill="#222222">ReactomePPI</text>
<rect x="1080" y="196.4" width="7.8" height="8.0" fill="#b22222" opacity="0.88"/>
<text x="1093.8" y="202.4" font-family="Helvetica, Arial, sans-serif" font-size="11" fill="#222222">120.4</text>
<text x="1072" y="216.1" text-anchor="end" font-family="Helvetica, Arial, sans-serif" font-size="11" fill="#222222">StringPPI</text>
<rect x="1080" y="210.1" width="8.0" height="8.0" fill="#457b9d" opacity="0.88"/>
<text x="1094.0" y="216.1" font-family="Helvetica, Arial, sans-serif" font-size="11" fill="#222222">122.2</text>
<text x="1072" y="229.8" text-anchor="end" font-family="Helvetica, Arial, sans-serif" font-size="11" fill="#222222">ProteinDrugEdge</text>
<rect x="1080" y="223.8" width="10.6" height="8.0" fill="#457b9d" opacity="0.88"/>
<text x="1096.6" y="229.8" font-family="Helvetica, Arial, sans-serif" font-size="11" fill="#222222">162.6</text>
<text x="1072" y="243.5" text-anchor="end" font-family="Helvetica, Arial, sans-serif" font-size="11" fill="#222222">HPAProteinExpression</text>
<rect x="1080" y="237.5" width="11.3" height="8.0" fill="#457b9d" opacity="0.88"/>
<text x="1097.3" y="243.5" font-family="Helvetica, Arial, sans-serif" font-size="11" fill="#222222">173.0</text>
<text x="1072" y="257.3" text-anchor="end" font-family="Helvetica, Arial, sans-serif" font-size="11" fill="#222222">HPMExpression</text>
<rect x="1080" y="251.3" width="11.4" height="8.0" fill="#457b9d" opacity="0.88"/>
<text x="1097.4" y="257.3" font-family="Helvetica, Arial, sans-serif" font-size="11" fill="#222222">174.7</text>
<text x="1072" y="271.0" text-anchor="end" font-family="Helvetica, Arial, sans-serif" font-size="11" fill="#222222">ProteinDiseaseEdge</text>
<rect x="1080" y="265.0" width="11.4" height="8.0" fill="#457b9d" opacity="0.88"/>
<text x="1097.4" y="271.0" font-family="Helvetica, Arial, sans-serif" font-size="11" fill="#222222">175.3</text>
<text x="1072" y="284.7" text-anchor="end" font-family="Helvetica, Arial, sans-serif" font-size="11" fill="#222222">HPARnaExpression</text>
<rect x="1080" y="278.7" width="11.5" height="8.0" fill="#457b9d" opacity="0.88"/>
<text x="1097.5" y="284.7" font-family="Helvetica, Arial, sans-serif" font-size="11" fill="#222222">177.2</text>
<text x="1072" y="298.4" text-anchor="end" font-family="Helvetica, Arial, sans-serif" font-size="11" fill="#222222">TotalPMScore</text>
<rect x="1080" y="292.4" width="11.9" height="8.0" fill="#457b9d" opacity="0.88"/>
<text x="1097.9" y="298.4" font-family="Helvetica, Arial, sans-serif" font-size="11" fill="#222222">183.3</text>
<text x="1072" y="312.2" text-anchor="end" font-family="Helvetica, Arial, sans-serif" font-size="11" fill="#222222">JensenLabTissuesExpression</text>
<rect x="1080" y="306.2" width="12.7" height="8.0" fill="#457b9d" opacity="0.88"/>
<text x="1098.7" y="312.2" font-family="Helvetica, Arial, sans-serif" font-size="11" fill="#222222">194.3</text>
<text x="1072" y="325.9" text-anchor="end" font-family="Helvetica, Arial, sans-serif" font-size="11" fill="#222222">AntibodyCount</text>
<rect x="1080" y="319.9" width="13.3" height="8.0" fill="#457b9d" opacity="0.88"/>
<text x="1099.3" y="325.9" font-family="Helvetica, Arial, sans-serif" font-size="11" fill="#222222">204.2</text>
<text x="1072" y="339.6" text-anchor="end" font-family="Helvetica, Arial, sans-serif" font-size="11" fill="#222222">WikiPathwaysGenePathwayEdg</text>
<rect x="1080" y="333.6" width="13.5" height="8.0" fill="#457b9d" opacity="0.88"/>
<text x="1099.5" y="339.6" font-family="Helvetica, Arial, sans-serif" font-size="11" fill="#222222">207.0</text>
<text x="1072" y="353.3" text-anchor="end" font-family="Helvetica, Arial, sans-serif" font-size="11" fill="#222222">CTDGeneDisease</text>
<rect x="1080" y="347.3" width="13.6" height="8.0" fill="#457b9d" opacity="0.88"/>
<text x="1099.6" y="353.3" font-family="Helvetica, Arial, sans-serif" font-size="11" fill="#222222">209.1</text>
<text x="1072" y="367.1" text-anchor="end" font-family="Helvetica, Arial, sans-serif" font-size="11" fill="#222222">JensenLabDiseases</text>
<rect x="1080" y="361.1" width="14.2" height="8.0" fill="#457b9d" opacity="0.88"/>
<text x="1100.2" y="367.1" font-family="Helvetica, Arial, sans-serif" font-size="11" fill="#222222">218.1</text>
<text x="1072" y="380.8" text-anchor="end" font-family="Helvetica, Arial, sans-serif" font-size="11" fill="#222222">ProteinDrugEdge</text>
<rect x="1080" y="374.8" width="14.7" height="8.0" fill="#457b9d" opacity="0.88"/>
<text x="1100.7" y="380.8" font-family="Helvetica, Arial, sans-serif" font-size="11" fill="#222222">225.1</text>
<text x="1072" y="394.5" text-anchor="end" font-family="Helvetica, Arial, sans-serif" font-size="11" fill="#222222">DrugCentralIndication</text>
<rect x="1080" y="388.5" width="15.2" height="8.0" fill="#457b9d" opacity="0.88"/>
<text x="1101.2" y="394.5" font-family="Helvetica, Arial, sans-serif" font-size="11" fill="#222222">234.1</text>
<text x="1072" y="408.2" text-anchor="end" font-family="Helvetica, Arial, sans-serif" font-size="11" fill="#222222">HMDHumanPhenotype</text>
<rect x="1080" y="402.2" width="15.3" height="8.0" fill="#457b9d" opacity="0.88"/>
<text x="1101.3" y="408.2" font-family="Helvetica, Arial, sans-serif" font-size="11" fill="#222222">235.3</text>
<text x="1072" y="422.0" text-anchor="end" font-family="Helvetica, Arial, sans-serif" font-size="11" fill="#222222">PathwayCommonsGenePathwayE</text>
<rect x="1080" y="416.0" width="15.5" height="8.0" fill="#457b9d" opacity="0.88"/>
<text x="1101.5" y="422.0" font-family="Helvetica, Arial, sans-serif" font-size="11" fill="#222222">238.3</text>
<text x="1072" y="435.7" text-anchor="end" font-family="Helvetica, Arial, sans-serif" font-size="11" fill="#222222">ProteinLigandEdge</text>
<rect x="1080" y="429.7" width="15.7" height="8.0" fill="#457b9d" opacity="0.88"/>
<text x="1101.7" y="435.7" font-family="Helvetica, Arial, sans-serif" font-size="11" fill="#222222">241.5</text>
<text x="1072" y="449.4" text-anchor="end" font-family="Helvetica, Arial, sans-serif" font-size="11" fill="#222222">IDGFamily</text>
<rect x="1080" y="443.4" width="16.7" height="8.0" fill="#457b9d" opacity="0.88"/>
<text x="1102.7" y="449.4" font-family="Helvetica, Arial, sans-serif" font-size="11" fill="#222222">256.1</text>
<text x="1072" y="463.1" text-anchor="end" font-family="Helvetica, Arial, sans-serif" font-size="11" fill="#222222">ProteinDTOClass</text>
<rect x="1080" y="457.1" width="17.4" height="8.0" fill="#457b9d" opacity="0.88"/>
<text x="1103.4" y="463.1" font-family="Helvetica, Arial, sans-serif" font-size="11" fill="#222222">266.6</text>
<text x="1072" y="476.9" text-anchor="end" font-family="Helvetica, Arial, sans-serif" font-size="11" fill="#222222">ProteinGoTermEdge</text>
<rect x="1080" y="470.9" width="17.5" height="8.0" fill="#457b9d" opacity="0.88"/>
<text x="1103.5" y="476.9" font-family="Helvetica, Arial, sans-serif" font-size="11" fill="#222222">268.1</text>
<text x="1072" y="490.6" text-anchor="end" font-family="Helvetica, Arial, sans-serif" font-size="11" fill="#222222">ProteinNode</text>
<rect x="1080" y="484.6" width="17.8" height="8.0" fill="#457b9d" opacity="0.88"/>
<text x="1103.8" y="490.6" font-family="Helvetica, Arial, sans-serif" font-size="11" fill="#222222">273.9</text>
<text x="1072" y="504.3" text-anchor="end" font-family="Helvetica, Arial, sans-serif" font-size="11" fill="#222222">TIGA</text>
<rect x="1080" y="498.3" width="17.9" height="8.0" fill="#457b9d" opacity="0.88"/>
<text x="1103.9" y="504.3" font-family="Helvetica, Arial, sans-serif" font-size="11" fill="#222222">274.9</text>
<text x="1072" y="518.0" text-anchor="end" font-family="Helvetica, Arial, sans-serif" font-size="11" fill="#222222">ProteinGoTermEdge</text>
<rect x="1080" y="512.0" width="18.5" height="8.0" fill="#457b9d" opacity="0.88"/>
<text x="1104.5" y="518.0" font-family="Helvetica, Arial, sans-serif" font-size="11" fill="#222222">284.4</text>
<text x="1072" y="531.8" text-anchor="end" font-family="Helvetica, Arial, sans-serif" font-size="11" fill="#222222">Protein</text>
<rect x="1080" y="525.8" width="18.9" height="8.0" fill="#457b9d" opacity="0.88"/>
<text x="1104.9" y="531.8" font-family="Helvetica, Arial, sans-serif" font-size="11" fill="#222222">289.8</text>
<text x="1072" y="545.5" text-anchor="end" font-family="Helvetica, Arial, sans-serif" font-size="11" fill="#222222">ReactomeProteinPathwayEdge</text>
<rect x="1080" y="539.5" width="19.1" height="8.0" fill="#457b9d" opacity="0.88"/>
<text x="1105.1" y="545.5" font-family="Helvetica, Arial, sans-serif" font-size="11" fill="#222222">292.8</text>
<text x="1072" y="559.2" text-anchor="end" font-family="Helvetica, Arial, sans-serif" font-size="11" fill="#222222">HCOPOrtholog</text>
<rect x="1080" y="553.2" width="20.5" height="8.0" fill="#457b9d" opacity="0.88"/>
<text x="1106.5" y="559.2" font-family="Helvetica, Arial, sans-serif" font-size="11" fill="#222222">314.2</text>
<text x="1072" y="572.9" text-anchor="end" font-family="Helvetica, Arial, sans-serif" font-size="11" fill="#222222">PantherClasses</text>
<rect x="1080" y="566.9" width="36.1" height="8.0" fill="#457b9d" opacity="0.88"/>
<text x="1122.1" y="572.9" font-family="Helvetica, Arial, sans-serif" font-size="11" fill="#222222">553.9</text>
<text x="1072" y="586.7" text-anchor="end" font-family="Helvetica, Arial, sans-serif" font-size="11" fill="#222222">DrugNode</text>
<rect x="1080" y="580.7" width="56.9" height="8.0" fill="#457b9d" opacity="0.88"/>
<text x="1142.9" y="586.7" font-family="Helvetica, Arial, sans-serif" font-size="11" fill="#222222">874.5</text>
<text x="1072" y="600.4" text-anchor="end" font-family="Helvetica, Arial, sans-serif" font-size="11" fill="#222222">MondoDiseaseParentEdge</text>
<rect x="1080" y="594.4" width="58.3" height="8.0" fill="#457b9d" opacity="0.88"/>
<text x="1144.3" y="600.4" font-family="Helvetica, Arial, sans-serif" font-size="11" fill="#222222">895.0</text>
<text x="1072" y="614.1" text-anchor="end" font-family="Helvetica, Arial, sans-serif" font-size="11" fill="#222222">DODiseaseParentEdge</text>
<rect x="1080" y="608.1" width="69.4" height="8.0" fill="#457b9d" opacity="0.88"/>
<text x="1155.4" y="614.1" font-family="Helvetica, Arial, sans-serif" font-size="11" fill="#222222">1065.7</text>
<text x="1072" y="627.8" text-anchor="end" font-family="Helvetica, Arial, sans-serif" font-size="11" fill="#222222">Uberon</text>
<rect x="1080" y="621.8" width="79.2" height="8.0" fill="#457b9d" opacity="0.88"/>
<text x="1165.2" y="627.8" font-family="Helvetica, Arial, sans-serif" font-size="11" fill="#222222">1216.7</text>
<text x="1072" y="641.6" text-anchor="end" font-family="Helvetica, Arial, sans-serif" font-size="11" fill="#222222">DODisease</text>
<rect x="1080" y="635.6" width="80.3" height="8.0" fill="#457b9d" opacity="0.88"/>
<text x="1166.3" y="641.6" font-family="Helvetica, Arial, sans-serif" font-size="11" fill="#222222">1233.9</text>
<text x="1072" y="655.3" text-anchor="end" font-family="Helvetica, Arial, sans-serif" font-size="11" fill="#222222">MondoDisease</text>
<rect x="1080" y="649.3" width="88.4" height="8.0" fill="#457b9d" opacity="0.88"/>
<text x="1174.4" y="655.3" font-family="Helvetica, Arial, sans-serif" font-size="11" fill="#222222">1358.3</text>
<text x="1072" y="669.0" text-anchor="end" font-family="Helvetica, Arial, sans-serif" font-size="11" fill="#222222">LigandNode</text>
<rect x="1080" y="663.0" width="98.9" height="8.0" fill="#457b9d" opacity="0.88"/>
<text x="1184.9" y="669.0" font-family="Helvetica, Arial, sans-serif" font-size="11" fill="#222222">1519.6</text>
<text x="1072" y="682.7" text-anchor="end" font-family="Helvetica, Arial, sans-serif" font-size="11" fill="#222222">DrugNode</text>
<rect x="1080" y="676.7" width="136.5" height="8.0" fill="#457b9d" opacity="0.88"/>
<text x="1222.5" y="682.7" font-family="Helvetica, Arial, sans-serif" font-size="11" fill="#222222">2097.7</text>
<text x="1072" y="696.5" text-anchor="end" font-family="Helvetica, Arial, sans-serif" font-size="11" fill="#222222">IMPCPhenotype</text>
<rect x="1080" y="690.5" width="143.3" height="8.0" fill="#457b9d" opacity="0.88"/>
<text x="1229.3" y="696.5" font-family="Helvetica, Arial, sans-serif" font-size="11" fill="#222222">2202.0</text>
<text x="1072" y="710.2" text-anchor="end" font-family="Helvetica, Arial, sans-serif" font-size="11" fill="#222222">PathwayCommonsPathway</text>
<rect x="1080" y="704.2" width="265.6" height="8.0" fill="#457b9d" opacity="0.88"/>
<text x="1351.6" y="710.2" font-family="Helvetica, Arial, sans-serif" font-size="11" fill="#222222">4080.7</text>
<text x="1072" y="723.9" text-anchor="end" font-family="Helvetica, Arial, sans-serif" font-size="11" fill="#222222">MPPhenotype</text>
<rect x="1080" y="717.9" width="317.0" height="8.0" fill="#457b9d" opacity="0.88"/>
<text x="1403.0" y="723.9" font-family="Helvetica, Arial, sans-serif" font-size="11" fill="#222222">4869.6</text>
<text x="1072" y="737.6" text-anchor="end" font-family="Helvetica, Arial, sans-serif" font-size="11" fill="#222222">GOTerm</text>
<rect x="1080" y="731.6" width="339.0" height="8.0" fill="#457b9d" opacity="0.88"/>
<text x="1425.0" y="737.6" font-family="Helvetica, Arial, sans-serif" font-size="11" fill="#222222">5207.9</text>
<text x="1072" y="751.4" text-anchor="end" font-family="Helvetica, Arial, sans-serif" font-size="11" fill="#222222">DTOClass</text>
<rect x="1080" y="745.4" width="354.7" height="8.0" fill="#457b9d" opacity="0.88"/>
<text x="1440.7" y="751.4" font-family="Helvetica, Arial, sans-serif" font-size="11" fill="#222222">5449.7</text>
<text x="1072" y="765.1" text-anchor="end" font-family="Helvetica, Arial, sans-serif" font-size="11" fill="#222222">WikiPathwaysPathway</text>
<rect x="1080" y="759.1" width="385.3" height="8.0" fill="#457b9d" opacity="0.88"/>
<text x="1471.3" y="765.1" font-family="Helvetica, Arial, sans-serif" font-size="11" fill="#222222">5920.0</text>
<text x="1072" y="778.8" text-anchor="end" font-family="Helvetica, Arial, sans-serif" font-size="11" fill="#222222">DTOClassParentEdge</text>
<rect x="1080" y="772.8" width="412.4" height="8.0" fill="#457b9d" opacity="0.88"/>
<text x="1498.4" y="778.8" font-family="Helvetica, Arial, sans-serif" font-size="11" fill="#222222">6336.3</text>
<text x="1072" y="792.5" text-anchor="end" font-family="Helvetica, Arial, sans-serif" font-size="11" fill="#222222">ReactomePathwayParentEdge</text>
<rect x="1080" y="786.5" width="450.0" height="8.0" fill="#457b9d" opacity="0.88"/>
<text x="1536.0" y="792.5" font-family="Helvetica, Arial, sans-serif" font-size="11" fill="#222222">6914.1</text>
<text x="1072" y="806.3" text-anchor="end" font-family="Helvetica, Arial, sans-serif" font-size="11" fill="#222222">ReactomePathway</text>
<rect x="1080" y="800.3" width="520.0" height="8.0" fill="#457b9d" opacity="0.88"/>
<text x="1606.0" y="806.3" font-family="Helvetica, Arial, sans-serif" font-size="11" fill="#222222">7989.0</text>
<text x="70" y="862" font-family="Helvetica, Arial, sans-serif" font-size="12" fill="#222222">Slower than trend: JensenLabPublication x57.1; SureChEMBLPatentFamily x28.4; TINX x20.3; NCBIPublication x11.0; ReactomePPI x4.4; BioPlexPPI x3.9</text>
<text x="70" y="882" font-family="Helvetica, Arial, sans-serif" font-size="12" fill="#222222">No running adapters.</text>
</svg>